<svg width="31" height="45" fill="none" xmlns="http://www.w3.org/2000/svg"><path d="M30.268 11.2c-.16-.6-.486-1.24-.726-1.8C26.662 2.48 20.37 0 15.29 0 8.49 0 1 4.56 0 13.96v1.92c0 .08.027.8.067 1.16.56 4.48 4.095 9.24 6.735 13.72 2.84 4.8 5.787 9.52 8.707 14.24 1.8-3.08 3.594-6.2 5.353-9.2.48-.88 1.036-1.76 1.516-2.6.32-.56.931-1.12 1.21-1.64C26.429 26.36 31 21.12 31 15.96v-2.12c0-.56-.693-2.52-.732-2.64zm-14.853 9.64c-1.999 0-4.187-1-5.267-3.76-.161-.44-.148-1.32-.148-1.4v-1.24c0-3.52 2.988-5.12 5.588-5.12 3.2 0 5.675 2.56 5.675 5.76 0 3.2-2.648 5.76-5.848 5.76z" fill="#333"/></svg>