<svg width="35" height="35" fill="none" xmlns="http://www.w3.org/2000/svg"><path d="M17.5 0C7.838 0 .002 7.836.002 17.5S7.837 35 17.501 35 35 27.164 35 17.5 27.165 0 17.5 0zm9.242 25.534l-1.401 1.402c-.25.25-.983.405-1.006.405a16.536 16.536 0 0 1-11.837-4.838 16.556 16.556 0 0 1-4.84-11.877c0-.002.16-.714.41-.962l1.4-1.4c.513-.516 1.498-.749 2.188-.518l.295.098c.688.231 1.41.992 1.6 1.692l.705 2.587c.19.703-.066 1.703-.579 2.216l-.935.935a9.938 9.938 0 0 0 6.987 6.99l.936-.936c.515-.515 1.514-.77 2.215-.581l2.587.707c.7.193 1.461.91 1.692 1.598l.098.3c.229.687-.002 1.672-.515 2.182z" fill="#333"/></svg>