<svg width="28" height="28" fill="none" xmlns="http://www.w3.org/2000/svg"><path d="M14 0C6.27 0 .002 6.269.002 14s6.269 14 14 14 14-6.269 14-14S21.732 0 14 0zm7.394 20.427l-1.121 1.122c-.2.2-.786.324-.805.324a13.23 13.23 0 0 1-9.47-3.87A13.245 13.245 0 0 1 6.127 8.5c0-.001.128-.57.328-.768l1.12-1.122c.41-.413 1.198-.599 1.75-.414l.236.079c.55.184 1.128.793 1.28 1.353l.564 2.07c.152.562-.053 1.362-.463 1.772l-.748.748a7.95 7.95 0 0 0 5.59 5.592l.748-.748c.412-.412 1.212-.617 1.773-.465l2.069.565c.56.154 1.169.729 1.353 1.279l.079.239c.183.55-.002 1.338-.412 1.746z" fill="#333"/></svg>