<svg width="61" height="60" fill="none" xmlns="http://www.w3.org/2000/svg"><g clip-path="url(#clip0)" fill="#fff"><path d="M30.71 18.57c-6.313 0-11.449 5.128-11.449 11.43 0 6.305 5.136 11.433 11.45 11.433 6.312 0 11.448-5.128 11.448-11.432 0-6.303-5.136-11.432-11.449-11.432zm6.798 9.278l-8.202 8.19a1.76 1.76 0 0 1-1.247.516 1.76 1.76 0 0 1-1.247-.516l-3.134-3.13a1.758 1.758 0 0 1 0-2.49 1.764 1.764 0 0 1 2.493 0l1.888 1.886 6.956-6.945a1.764 1.764 0 0 1 2.493 0 1.758 1.758 0 0 1 0 2.49z"/><path d="M56.235 16.279l-.002-.047a62.063 62.063 0 0 1-.054-1.865c-.049-3.308-2.683-6.044-5.996-6.23-6.909-.384-12.253-2.634-16.82-7.078l-.039-.037a3.85 3.85 0 0 0-5.226 0l-.039.037c-4.566 4.444-9.91 6.694-16.82 7.08-3.312.184-5.947 2.92-5.996 6.229a61.72 61.72 0 0 1-.054 1.864l-.003.108c-.134 7.035-.3 15.79 2.632 23.736 1.613 4.37 4.056 8.168 7.26 11.29 3.649 3.556 8.428 6.38 14.206 8.39A4.392 4.392 0 0 0 30.71 60a4.326 4.326 0 0 0 1.43-.243c5.77-2.015 10.545-4.84 14.191-8.395 3.203-3.123 5.645-6.923 7.26-11.293 2.944-7.97 2.777-16.742 2.643-23.79zM30.71 44.953c-8.257 0-14.974-6.708-14.974-14.953s6.717-14.953 14.974-14.953c8.257 0 14.975 6.708 14.975 14.953S38.967 44.953 30.71 44.953z"/></g><defs><clipPath id="clip0"><path fill="#fff" transform="translate(.667)" d="M0 0h60.088v60H0z"/></clipPath></defs></svg>