<svg width="60" height="61" fill="none" xmlns="http://www.w3.org/2000/svg"><path d="M30 0C13.5 0 0 13.53 0 30.068c0 16.537 13.5 30.067 30 30.067s30-13.53 30-30.067C60 13.53 46.5 0 30 0zm10.5 18.04c2.4 0 4.5 2.105 4.5 4.51 0 2.406-2.1 4.511-4.5 4.511s-4.5-2.105-4.5-4.51c0-2.406 2.1-4.51 4.5-4.51zm-21 0c2.4 0 4.5 2.105 4.5 4.51 0 2.406-2.1 4.511-4.5 4.511s-4.5-2.105-4.5-4.51c0-2.406 2.1-4.51 4.5-4.51zM30 48.109c-7.8 0-14.4-5.111-16.8-12.027h33.6c-2.4 6.916-9 12.027-16.8 12.027z" fill="#fff"/></svg>