<svg width="34" height="32" fill="none" xmlns="http://www.w3.org/2000/svg"><path d="M.584 15.344l7.624 3.021 2.95 10.076c.19.645.932.883 1.426.455l4.249-3.678a1.21 1.21 0 0 1 1.545-.046l7.665 5.908c.527.408 1.275.1 1.407-.576l5.615-28.675c.144-.74-.54-1.356-1.203-1.084L.575 13.559c-.772.317-.765 1.477.01 1.785zm10.099 1.413L25.58 7.014c.268-.174.544.21.314.437L13.599 19.586a2.766 2.766 0 0 0-.79 1.62L12.39 24.5a.381.381 0 0 1-.752.058l-1.61-6.01c-.185-.686.084-1.418.655-1.792z" fill="#333"/></svg>