<svg width="28" height="31" fill="none" xmlns="http://www.w3.org/2000/svg"><path d="M20.718 17.7c-.054-.027-2.095-1.095-2.458-1.233a1.342 1.342 0 0 0-.476-.112c-.275 0-.507.146-.687.432-.204.322-.821 1.088-1.012 1.317-.025.03-.059.066-.08.066-.018 0-.333-.138-.43-.182-2.189-1.01-3.851-3.438-4.079-3.848-.032-.059-.034-.085-.034-.085a.665.665 0 0 1 .12-.15c.11-.117.231-.271.348-.42.055-.07.11-.141.165-.208a2.35 2.35 0 0 0 .331-.559l.046-.097c.213-.45.031-.83-.028-.952-.048-.102-.91-2.31-1.002-2.543-.22-.56-.511-.82-.916-.82-.037 0 0 0-.157.006-.192.009-1.236.155-1.698.464-.49.328-1.317 1.372-1.317 3.21 0 1.653.988 3.214 1.412 3.807l.058.09c1.625 2.519 3.65 4.386 5.704 5.257 1.976.838 2.913.935 3.445.935.224 0 .402-.018.56-.035l.1-.01c.684-.064 2.184-.89 2.526-1.897.268-.794.34-1.66.16-1.975-.122-.214-.333-.321-.6-.458z" fill="#333"/><path d="M14.248.618C6.665.618.496 7.118.496 15.11c0 2.584.651 5.114 1.885 7.329L.02 29.837a.403.403 0 0 0 .085.394.353.353 0 0 0 .37.097l7.265-2.45a13.209 13.209 0 0 0 6.51 1.722C21.83 29.6 28 23.1 28 15.11 28 7.119 21.831.618 14.248.618zm0 25.964a10.44 10.44 0 0 1-5.994-1.898.348.348 0 0 0-.31-.045l-3.639 1.229 1.175-3.68a.406.406 0 0 0-.05-.353 11.79 11.79 0 0 1-2.075-6.725c0-6.327 4.887-11.474 10.893-11.474 6.006 0 10.893 5.147 10.893 11.474 0 6.325-4.887 11.472-10.892 11.472z" fill="#333"/></svg>