<svg width="61" height="61" fill="none" xmlns="http://www.w3.org/2000/svg"><path d="M40.632 6.88c-9.166-9.173-24.085-9.173-33.252 0-9.165 9.176-9.165 24.105 0 33.28 8.163 8.168 20.877 9.043 30.037 2.666a4.955 4.955 0 0 0 1.344 2.493L52.11 58.68a4.961 4.961 0 0 0 7.025 0 4.967 4.967 0 0 0 0-7.03l-13.35-13.364a4.965 4.965 0 0 0-2.49-1.34c6.377-9.17 5.502-21.891-2.663-30.065zm-4.214 29.063c-6.844 6.849-17.982 6.849-24.823 0-6.84-6.85-6.84-17.994 0-24.843 6.841-6.847 17.98-6.847 24.823 0 6.843 6.85 6.843 17.994 0 24.843z" fill="#fff"/></svg>